<?xml version="1.0" encoding="utf-8" standalone="no"?>
<!DOCTYPE svg PUBLIC "-//W3C//DTD SVG 1.1//EN"
  "http://www.w3.org/Graphics/SVG/1.1/DTD/svg11.dtd">
<svg xmlns:xlink="http://www.w3.org/1999/xlink" width="527.752901pt" height="285.860406pt" viewBox="0 0 527.752901 285.860406" xmlns="http://www.w3.org/2000/svg" version="1.1">
 <metadata>
  <rdf:RDF xmlns:dc="http://purl.org/dc/elements/1.1/" xmlns:cc="http://creativecommons.org/ns#" xmlns:rdf="http://www.w3.org/1999/02/22-rdf-syntax-ns#">
   <cc:Work>
    <dc:type rdf:resource="http://purl.org/dc/dcmitype/StillImage"/>
    <dc:date>2026-08-24T17:34:15.697378</dc:date>
    <dc:format>image/svg+xml</dc:format>
    <dc:creator>
     <cc:Agent>
      <dc:title>Matplotlib v3.10.8, https://matplotlib.org/</dc:title>
     </cc:Agent>
    </dc:creator>
   </cc:Work>
  </rdf:RDF>
 </metadata>
 <defs>
  <style type="text/css">*{stroke-linejoin: round; stroke-linecap: butt}</style>
 </defs>
 <g id="figure_1">
  <g id="patch_1">
   <path d="M 0 285.860406 
L 527.752901 285.860406 
L 527.752901 0 
L 0 0 
L 0 285.860406 
z
" style="fill: none"/>
  </g>
  <g id="axes_1">
   <g id="patch_2">
    <path d="M 38.247656 234.344969 
L 256.374929 234.344969 
L 256.374929 23.672969 
L 38.247656 23.672969 
L 38.247656 234.344969 
z
" style="fill: none"/>
   </g>
   <g id="matplotlib.axis_1">
    <g id="xtick_1">
     <g id="line2d_1">
      <path d="M 42.442411 234.344969 
L 42.442411 23.672969 
" clip-path="url(#pb44fa165bd)" style="fill: none; stroke: #8a8a85; stroke-opacity: 0.25; stroke-width: 0.6; stroke-linecap: square"/>
     </g>
     <g id="line2d_2">
      <defs>
       <path id="m14089cc66d" d="M 0 0 
L 0 3.5 
" style="stroke: #7f7e78; stroke-width: 0.8"/>
      </defs>
      <g>
       <use xlink:href="#m14089cc66d" x="42.442411" y="234.344969" style="fill: #7f7e78; stroke: #7f7e78; stroke-width: 0.8"/>
      </g>
     </g>
     <g id="text_1">
      <text style="font-size: 8px; font-family: 'system-ui', 'Segoe UI', 'Helvetica Neue', 'Arial', sans-serif; text-anchor: middle; fill: #7f7e78" x="42.442411" y="247.267469" transform="rotate(-0 42.442411 247.267469)">0.0</text>
     </g>
    </g>
    <g id="xtick_2">
     <g id="line2d_3">
      <path d="M 84.389964 234.344969 
L 84.389964 23.672969 
" clip-path="url(#pb44fa165bd)" style="fill: none; stroke: #8a8a85; stroke-opacity: 0.25; stroke-width: 0.6; stroke-linecap: square"/>
     </g>
     <g id="line2d_4">
      <g>
       <use xlink:href="#m14089cc66d" x="84.389964" y="234.344969" style="fill: #7f7e78; stroke: #7f7e78; stroke-width: 0.8"/>
      </g>
     </g>
     <g id="text_2">
      <text style="font-size: 8px; font-family: 'system-ui', 'Segoe UI', 'Helvetica Neue', 'Arial', sans-serif; text-anchor: middle; fill: #7f7e78" x="84.389964" y="247.267469" transform="rotate(-0 84.389964 247.267469)">0.2</text>
     </g>
    </g>
    <g id="xtick_3">
     <g id="line2d_5">
      <path d="M 126.337516 234.344969 
L 126.337516 23.672969 
" clip-path="url(#pb44fa165bd)" style="fill: none; stroke: #8a8a85; stroke-opacity: 0.25; stroke-width: 0.6; stroke-linecap: square"/>
     </g>
     <g id="line2d_6">
      <g>
       <use xlink:href="#m14089cc66d" x="126.337516" y="234.344969" style="fill: #7f7e78; stroke: #7f7e78; stroke-width: 0.8"/>
      </g>
     </g>
     <g id="text_3">
      <text style="font-size: 8px; font-family: 'system-ui', 'Segoe UI', 'Helvetica Neue', 'Arial', sans-serif; text-anchor: middle; fill: #7f7e78" x="126.337516" y="247.267469" transform="rotate(-0 126.337516 247.267469)">0.4</text>
     </g>
    </g>
    <g id="xtick_4">
     <g id="line2d_7">
      <path d="M 168.285069 234.344969 
L 168.285069 23.672969 
" clip-path="url(#pb44fa165bd)" style="fill: none; stroke: #8a8a85; stroke-opacity: 0.25; stroke-width: 0.6; stroke-linecap: square"/>
     </g>
     <g id="line2d_8">
      <g>
       <use xlink:href="#m14089cc66d" x="168.285069" y="234.344969" style="fill: #7f7e78; stroke: #7f7e78; stroke-width: 0.8"/>
      </g>
     </g>
     <g id="text_4">
      <text style="font-size: 8px; font-family: 'system-ui', 'Segoe UI', 'Helvetica Neue', 'Arial', sans-serif; text-anchor: middle; fill: #7f7e78" x="168.285069" y="247.267469" transform="rotate(-0 168.285069 247.267469)">0.6</text>
     </g>
    </g>
    <g id="xtick_5">
     <g id="line2d_9">
      <path d="M 210.232621 234.344969 
L 210.232621 23.672969 
" clip-path="url(#pb44fa165bd)" style="fill: none; stroke: #8a8a85; stroke-opacity: 0.25; stroke-width: 0.6; stroke-linecap: square"/>
     </g>
     <g id="line2d_10">
      <g>
       <use xlink:href="#m14089cc66d" x="210.232621" y="234.344969" style="fill: #7f7e78; stroke: #7f7e78; stroke-width: 0.8"/>
      </g>
     </g>
     <g id="text_5">
      <text style="font-size: 8px; font-family: 'system-ui', 'Segoe UI', 'Helvetica Neue', 'Arial', sans-serif; text-anchor: middle; fill: #7f7e78" x="210.232621" y="247.267469" transform="rotate(-0 210.232621 247.267469)">0.8</text>
     </g>
    </g>
    <g id="xtick_6">
     <g id="line2d_11">
      <path d="M 252.180174 234.344969 
L 252.180174 23.672969 
" clip-path="url(#pb44fa165bd)" style="fill: none; stroke: #8a8a85; stroke-opacity: 0.25; stroke-width: 0.6; stroke-linecap: square"/>
     </g>
     <g id="line2d_12">
      <g>
       <use xlink:href="#m14089cc66d" x="252.180174" y="234.344969" style="fill: #7f7e78; stroke: #7f7e78; stroke-width: 0.8"/>
      </g>
     </g>
     <g id="text_6">
      <text style="font-size: 8px; font-family: 'system-ui', 'Segoe UI', 'Helvetica Neue', 'Arial', sans-serif; text-anchor: middle; fill: #7f7e78" x="252.180174" y="247.267469" transform="rotate(-0 252.180174 247.267469)">1.0</text>
     </g>
    </g>
    <g id="text_7">
     <text style="font-size: 8.5px; font-family: 'system-ui', 'Segoe UI', 'Helvetica Neue', 'Arial', sans-serif; text-anchor: middle; fill: #7f7e78" x="147.311293" y="259.400125" transform="rotate(-0 147.311293 259.400125)">False Positive Rate</text>
    </g>
   </g>
   <g id="matplotlib.axis_2">
    <g id="ytick_1">
     <g id="line2d_13">
      <path d="M 38.247656 230.407174 
L 256.374929 230.407174 
" clip-path="url(#pb44fa165bd)" style="fill: none; stroke: #8a8a85; stroke-opacity: 0.25; stroke-width: 0.6; stroke-linecap: square"/>
     </g>
     <g id="line2d_14">
      <defs>
       <path id="m5a314e16e5" d="M 0 0 
L -3.5 0 
" style="stroke: #7f7e78; stroke-width: 0.8"/>
      </defs>
      <g>
       <use xlink:href="#m5a314e16e5" x="38.247656" y="230.407174" style="fill: #7f7e78; stroke: #7f7e78; stroke-width: 0.8"/>
      </g>
     </g>
     <g id="text_8">
      <text style="font-size: 8px; font-family: 'system-ui', 'Segoe UI', 'Helvetica Neue', 'Arial', sans-serif; text-anchor: end; fill: #7f7e78" x="31.247656" y="233.368424" transform="rotate(-0 31.247656 233.368424)">0.0</text>
     </g>
    </g>
    <g id="ytick_2">
     <g id="line2d_15">
      <path d="M 38.247656 191.02923 
L 256.374929 191.02923 
" clip-path="url(#pb44fa165bd)" style="fill: none; stroke: #8a8a85; stroke-opacity: 0.25; stroke-width: 0.6; stroke-linecap: square"/>
     </g>
     <g id="line2d_16">
      <g>
       <use xlink:href="#m5a314e16e5" x="38.247656" y="191.02923" style="fill: #7f7e78; stroke: #7f7e78; stroke-width: 0.8"/>
      </g>
     </g>
     <g id="text_9">
      <text style="font-size: 8px; font-family: 'system-ui', 'Segoe UI', 'Helvetica Neue', 'Arial', sans-serif; text-anchor: end; fill: #7f7e78" x="31.247656" y="193.99048" transform="rotate(-0 31.247656 193.99048)">0.2</text>
     </g>
    </g>
    <g id="ytick_3">
     <g id="line2d_17">
      <path d="M 38.247656 151.651287 
L 256.374929 151.651287 
" clip-path="url(#pb44fa165bd)" style="fill: none; stroke: #8a8a85; stroke-opacity: 0.25; stroke-width: 0.6; stroke-linecap: square"/>
     </g>
     <g id="line2d_18">
      <g>
       <use xlink:href="#m5a314e16e5" x="38.247656" y="151.651287" style="fill: #7f7e78; stroke: #7f7e78; stroke-width: 0.8"/>
      </g>
     </g>
     <g id="text_10">
      <text style="font-size: 8px; font-family: 'system-ui', 'Segoe UI', 'Helvetica Neue', 'Arial', sans-serif; text-anchor: end; fill: #7f7e78" x="31.247656" y="154.612537" transform="rotate(-0 31.247656 154.612537)">0.4</text>
     </g>
    </g>
    <g id="ytick_4">
     <g id="line2d_19">
      <path d="M 38.247656 112.273343 
L 256.374929 112.273343 
" clip-path="url(#pb44fa165bd)" style="fill: none; stroke: #8a8a85; stroke-opacity: 0.25; stroke-width: 0.6; stroke-linecap: square"/>
     </g>
     <g id="line2d_20">
      <g>
       <use xlink:href="#m5a314e16e5" x="38.247656" y="112.273343" style="fill: #7f7e78; stroke: #7f7e78; stroke-width: 0.8"/>
      </g>
     </g>
     <g id="text_11">
      <text style="font-size: 8px; font-family: 'system-ui', 'Segoe UI', 'Helvetica Neue', 'Arial', sans-serif; text-anchor: end; fill: #7f7e78" x="31.247656" y="115.234593" transform="rotate(-0 31.247656 115.234593)">0.6</text>
     </g>
    </g>
    <g id="ytick_5">
     <g id="line2d_21">
      <path d="M 38.247656 72.895399 
L 256.374929 72.895399 
" clip-path="url(#pb44fa165bd)" style="fill: none; stroke: #8a8a85; stroke-opacity: 0.25; stroke-width: 0.6; stroke-linecap: square"/>
     </g>
     <g id="line2d_22">
      <g>
       <use xlink:href="#m5a314e16e5" x="38.247656" y="72.895399" style="fill: #7f7e78; stroke: #7f7e78; stroke-width: 0.8"/>
      </g>
     </g>
     <g id="text_12">
      <text style="font-size: 8px; font-family: 'system-ui', 'Segoe UI', 'Helvetica Neue', 'Arial', sans-serif; text-anchor: end; fill: #7f7e78" x="31.247656" y="75.856649" transform="rotate(-0 31.247656 75.856649)">0.8</text>
     </g>
    </g>
    <g id="ytick_6">
     <g id="line2d_23">
      <path d="M 38.247656 33.517455 
L 256.374929 33.517455 
" clip-path="url(#pb44fa165bd)" style="fill: none; stroke: #8a8a85; stroke-opacity: 0.25; stroke-width: 0.6; stroke-linecap: square"/>
     </g>
     <g id="line2d_24">
      <g>
       <use xlink:href="#m5a314e16e5" x="38.247656" y="33.517455" style="fill: #7f7e78; stroke: #7f7e78; stroke-width: 0.8"/>
      </g>
     </g>
     <g id="text_13">
      <text style="font-size: 8px; font-family: 'system-ui', 'Segoe UI', 'Helvetica Neue', 'Arial', sans-serif; text-anchor: end; fill: #7f7e78" x="31.247656" y="36.478705" transform="rotate(-0 31.247656 36.478705)">1.0</text>
     </g>
    </g>
    <g id="text_14">
     <text style="font-size: 8.5px; font-family: 'system-ui', 'Segoe UI', 'Helvetica Neue', 'Arial', sans-serif; text-anchor: middle; fill: #7f7e78" x="14.932656" y="129.008969" transform="rotate(-90 14.932656 129.008969)">True Positive Rate (recall)</text>
    </g>
   </g>
   <g id="FillBetweenPolyCollection_1">
    <defs>
     <path id="m3ac8f7f16b" d="M 42.442411 -55.453232 
L 42.442411 -55.453232 
L 42.495916 -55.453232 
L 42.549421 -55.453232 
L 42.549421 -65.297718 
L 42.602925 -65.297718 
L 42.602925 -67.758839 
L 42.65643 -67.758839 
L 42.65643 -70.219961 
L 42.763439 -70.219961 
L 42.763439 -75.142204 
L 42.870448 -75.142204 
L 42.870448 -82.525568 
L 42.923952 -82.525568 
L 42.923952 -84.98669 
L 43.13797 -84.98669 
L 43.13797 -89.908933 
L 43.458998 -89.908933 
L 43.458998 -92.370054 
L 43.566007 -92.370054 
L 43.566007 -94.831176 
L 43.780025 -94.831176 
L 43.780025 -97.292297 
L 43.994043 -97.292297 
L 43.994043 -99.753419 
L 44.047547 -99.753419 
L 44.047547 -102.21454 
L 44.208061 -102.21454 
L 44.208061 -104.675662 
L 44.261566 -104.675662 
L 44.261566 -107.136783 
L 44.582593 -107.136783 
L 44.582593 -112.059026 
L 44.743106 -112.059026 
L 44.743106 -114.520148 
L 45.064134 -114.520148 
L 45.064134 -116.981269 
L 45.224647 -116.981269 
L 45.224647 -119.442391 
L 45.278152 -119.442391 
L 45.278152 -121.903512 
L 46.08072 -121.903512 
L 46.08072 -126.825755 
L 47.043801 -126.825755 
L 47.043801 -131.747998 
L 48.648937 -131.747998 
L 48.648937 -134.20912 
L 49.98655 -134.20912 
L 49.98655 -136.670241 
L 50.468091 -136.670241 
L 50.468091 -139.131363 
L 50.5751 -139.131363 
L 50.5751 -141.592484 
L 51.377668 -141.592484 
L 51.377668 -144.053606 
L 51.484677 -144.053606 
L 51.484677 -146.514727 
L 51.859209 -146.514727 
L 51.859209 -148.975849 
L 52.233741 -148.975849 
L 52.233741 -151.43697 
L 53.196822 -151.43697 
L 53.196822 -153.898092 
L 54.266913 -153.898092 
L 54.266913 -156.359213 
L 56.086067 -156.359213 
L 56.086067 -158.820335 
L 56.674617 -158.820335 
L 56.674617 -161.281456 
L 58.01223 -161.281456 
L 58.01223 -163.742578 
L 58.493771 -163.742578 
L 58.493771 -166.203699 
L 60.205916 -166.203699 
L 60.205916 -168.664821 
L 61.168997 -168.664821 
L 61.168997 -171.125942 
L 61.757547 -171.125942 
L 61.757547 -173.587064 
L 62.667124 -173.587064 
L 62.667124 -176.048185 
L 62.988151 -176.048185 
L 62.988151 -178.509307 
L 64.432774 -178.509307 
L 64.432774 -180.970428 
L 64.539783 -180.970428 
L 64.539783 -183.43155 
L 64.967819 -183.43155 
L 64.967819 -185.892671 
L 65.288846 -185.892671 
L 65.288846 -188.353793 
L 66.251928 -188.353793 
L 66.251928 -190.814914 
L 66.947487 -190.814914 
L 66.947487 -193.276036 
L 67.268514 -193.276036 
L 67.268514 -195.737157 
L 70.692804 -195.737157 
L 70.692804 -198.198279 
L 70.799813 -198.198279 
L 70.799813 -200.6594 
L 73.689058 -200.6594 
L 73.689058 -203.120522 
L 75.240689 -203.120522 
L 75.240689 -205.581643 
L 78.664979 -205.581643 
L 78.664979 -208.042765 
L 79.949088 -208.042765 
L 79.949088 -210.503886 
L 81.98226 -210.503886 
L 81.98226 -212.965008 
L 83.801414 -212.965008 
L 83.801414 -215.426129 
L 88.991354 -215.426129 
L 88.991354 -217.887251 
L 89.258876 -217.887251 
L 89.258876 -220.348372 
L 93.539239 -220.348372 
L 93.539239 -222.809494 
L 96.428483 -222.809494 
L 96.428483 -225.270615 
L 102.206973 -225.270615 
L 102.206973 -227.731737 
L 104.454163 -227.731737 
L 104.454163 -230.192858 
L 121.736127 -230.192858 
L 121.736127 -232.65398 
L 124.571867 -232.65398 
L 124.571867 -235.115101 
L 128.317184 -235.115101 
L 128.317184 -237.576223 
L 142.495885 -237.576223 
L 142.495885 -240.037344 
L 147.953347 -240.037344 
L 147.953347 -242.498466 
L 148.969933 -242.498466 
L 148.969933 -244.959587 
L 176.471262 -244.959587 
L 176.471262 -247.420709 
L 181.179661 -247.420709 
L 181.179661 -249.88183 
L 220.773014 -249.88183 
L 220.773014 -252.342952 
L 252.180174 -252.342952 
L 252.180174 -55.453232 
L 252.180174 -55.453232 
L 220.773014 -55.453232 
L 220.773014 -55.453232 
L 181.179661 -55.453232 
L 181.179661 -55.453232 
L 176.471262 -55.453232 
L 176.471262 -55.453232 
L 148.969933 -55.453232 
L 148.969933 -55.453232 
L 147.953347 -55.453232 
L 147.953347 -55.453232 
L 142.495885 -55.453232 
L 142.495885 -55.453232 
L 128.317184 -55.453232 
L 128.317184 -55.453232 
L 124.571867 -55.453232 
L 124.571867 -55.453232 
L 121.736127 -55.453232 
L 121.736127 -55.453232 
L 104.454163 -55.453232 
L 104.454163 -55.453232 
L 102.206973 -55.453232 
L 102.206973 -55.453232 
L 96.428483 -55.453232 
L 96.428483 -55.453232 
L 93.539239 -55.453232 
L 93.539239 -55.453232 
L 89.258876 -55.453232 
L 89.258876 -55.453232 
L 88.991354 -55.453232 
L 88.991354 -55.453232 
L 83.801414 -55.453232 
L 83.801414 -55.453232 
L 81.98226 -55.453232 
L 81.98226 -55.453232 
L 79.949088 -55.453232 
L 79.949088 -55.453232 
L 78.664979 -55.453232 
L 78.664979 -55.453232 
L 75.240689 -55.453232 
L 75.240689 -55.453232 
L 73.689058 -55.453232 
L 73.689058 -55.453232 
L 70.799813 -55.453232 
L 70.799813 -55.453232 
L 70.692804 -55.453232 
L 70.692804 -55.453232 
L 67.268514 -55.453232 
L 67.268514 -55.453232 
L 66.947487 -55.453232 
L 66.947487 -55.453232 
L 66.251928 -55.453232 
L 66.251928 -55.453232 
L 65.288846 -55.453232 
L 65.288846 -55.453232 
L 64.967819 -55.453232 
L 64.967819 -55.453232 
L 64.539783 -55.453232 
L 64.539783 -55.453232 
L 64.432774 -55.453232 
L 64.432774 -55.453232 
L 62.988151 -55.453232 
L 62.988151 -55.453232 
L 62.667124 -55.453232 
L 62.667124 -55.453232 
L 61.757547 -55.453232 
L 61.757547 -55.453232 
L 61.168997 -55.453232 
L 61.168997 -55.453232 
L 60.205916 -55.453232 
L 60.205916 -55.453232 
L 58.493771 -55.453232 
L 58.493771 -55.453232 
L 58.01223 -55.453232 
L 58.01223 -55.453232 
L 56.674617 -55.453232 
L 56.674617 -55.453232 
L 56.086067 -55.453232 
L 56.086067 -55.453232 
L 54.266913 -55.453232 
L 54.266913 -55.453232 
L 53.196822 -55.453232 
L 53.196822 -55.453232 
L 52.233741 -55.453232 
L 52.233741 -55.453232 
L 51.859209 -55.453232 
L 51.859209 -55.453232 
L 51.484677 -55.453232 
L 51.484677 -55.453232 
L 51.377668 -55.453232 
L 51.377668 -55.453232 
L 50.5751 -55.453232 
L 50.5751 -55.453232 
L 50.468091 -55.453232 
L 50.468091 -55.453232 
L 49.98655 -55.453232 
L 49.98655 -55.453232 
L 48.648937 -55.453232 
L 48.648937 -55.453232 
L 47.043801 -55.453232 
L 47.043801 -55.453232 
L 46.08072 -55.453232 
L 46.08072 -55.453232 
L 45.278152 -55.453232 
L 45.278152 -55.453232 
L 45.224647 -55.453232 
L 45.224647 -55.453232 
L 45.064134 -55.453232 
L 45.064134 -55.453232 
L 44.743106 -55.453232 
L 44.743106 -55.453232 
L 44.582593 -55.453232 
L 44.582593 -55.453232 
L 44.261566 -55.453232 
L 44.261566 -55.453232 
L 44.208061 -55.453232 
L 44.208061 -55.453232 
L 44.047547 -55.453232 
L 44.047547 -55.453232 
L 43.994043 -55.453232 
L 43.994043 -55.453232 
L 43.780025 -55.453232 
L 43.780025 -55.453232 
L 43.566007 -55.453232 
L 43.566007 -55.453232 
L 43.458998 -55.453232 
L 43.458998 -55.453232 
L 43.13797 -55.453232 
L 43.13797 -55.453232 
L 42.923952 -55.453232 
L 42.923952 -55.453232 
L 42.870448 -55.453232 
L 42.870448 -55.453232 
L 42.763439 -55.453232 
L 42.763439 -55.453232 
L 42.65643 -55.453232 
L 42.65643 -55.453232 
L 42.602925 -55.453232 
L 42.602925 -55.453232 
L 42.549421 -55.453232 
L 42.549421 -55.453232 
L 42.495916 -55.453232 
L 42.442411 -55.453232 
z
" style="stroke: #2a78d6; stroke-opacity: 0.1"/>
    </defs>
    <g clip-path="url(#pb44fa165bd)">
     <use xlink:href="#m3ac8f7f16b" x="0" y="285.860406" style="fill: #2a78d6; fill-opacity: 0.1; stroke: #2a78d6; stroke-opacity: 0.1"/>
    </g>
   </g>
   <g id="line2d_25">
    <path d="M 42.442411 230.407174 
L 42.549421 230.407174 
L 42.65643 215.640445 
L 42.763439 215.640445 
L 42.870448 203.334838 
L 42.923952 203.334838 
L 42.923952 200.873716 
L 43.13797 200.873716 
L 43.13797 195.951473 
L 43.458998 195.951473 
L 43.566007 191.02923 
L 43.780025 191.02923 
L 43.780025 188.568109 
L 43.994043 188.568109 
L 44.047547 183.645866 
L 44.208061 183.645866 
L 44.261566 178.723623 
L 44.582593 178.723623 
L 44.582593 173.80138 
L 44.743106 173.80138 
L 44.743106 171.340258 
L 45.064134 171.340258 
L 45.064134 168.879137 
L 45.224647 168.879137 
L 45.278152 163.956894 
L 46.08072 163.956894 
L 46.08072 159.034651 
L 47.043801 159.034651 
L 47.043801 154.112408 
L 48.648937 154.112408 
L 48.648937 151.651287 
L 49.98655 151.651287 
L 49.98655 149.190165 
L 50.468091 149.190165 
L 50.5751 144.267922 
L 51.377668 144.267922 
L 51.484677 139.345679 
L 51.859209 139.345679 
L 51.859209 136.884558 
L 52.233741 136.884558 
L 52.233741 134.423436 
L 53.196822 134.423436 
L 53.196822 131.962315 
L 54.266913 131.962315 
L 54.266913 129.501193 
L 56.086067 129.501193 
L 56.086067 127.040072 
L 56.674617 127.040072 
L 56.674617 124.57895 
L 58.01223 124.57895 
L 58.01223 122.117829 
L 58.493771 122.117829 
L 58.493771 119.656707 
L 60.205916 119.656707 
L 60.205916 117.195586 
L 61.168997 117.195586 
L 61.168997 114.734464 
L 61.757547 114.734464 
L 61.757547 112.273343 
L 62.667124 112.273343 
L 62.667124 109.812221 
L 62.988151 109.812221 
L 62.988151 107.3511 
L 64.432774 107.3511 
L 64.539783 102.428857 
L 64.967819 102.428857 
L 64.967819 99.967735 
L 65.288846 99.967735 
L 65.288846 97.506614 
L 66.251928 97.506614 
L 66.251928 95.045492 
L 66.947487 95.045492 
L 66.947487 92.584371 
L 67.268514 92.584371 
L 67.268514 90.123249 
L 70.692804 90.123249 
L 70.799813 85.201006 
L 73.689058 85.201006 
L 73.689058 82.739885 
L 75.240689 82.739885 
L 75.240689 80.278763 
L 78.664979 80.278763 
L 78.664979 77.817642 
L 79.949088 77.817642 
L 79.949088 75.35652 
L 81.98226 75.35652 
L 81.98226 72.895399 
L 83.801414 72.895399 
L 83.801414 70.434277 
L 88.991354 70.434277 
L 88.991354 67.973156 
L 89.258876 67.973156 
L 89.258876 65.512034 
L 93.539239 65.512034 
L 93.539239 63.050913 
L 96.428483 63.050913 
L 96.428483 60.589791 
L 102.206973 60.589791 
L 102.206973 58.12867 
L 104.454163 58.12867 
L 104.454163 55.667548 
L 121.736127 55.667548 
L 121.736127 53.206427 
L 124.571867 53.206427 
L 124.571867 50.745305 
L 128.317184 50.745305 
L 128.317184 48.284184 
L 142.495885 48.284184 
L 142.495885 45.823062 
L 147.953347 45.823062 
L 147.953347 43.361941 
L 148.969933 43.361941 
L 148.969933 40.900819 
L 176.471262 40.900819 
L 176.471262 38.439698 
L 181.179661 38.439698 
L 181.179661 35.978576 
L 220.773014 35.978576 
L 220.773014 33.517455 
L 252.180174 33.517455 
L 252.180174 33.517455 
" clip-path="url(#pb44fa165bd)" style="fill: none; stroke: #2a78d6; stroke-width: 2.3; stroke-linecap: square"/>
   </g>
   <g id="line2d_26">
    <path d="M 42.442411 230.407174 
L 252.180174 33.517455 
" clip-path="url(#pb44fa165bd)" style="fill: none; stroke-dasharray: 4.44,1.92; stroke-dashoffset: 0; stroke: #7f7e78; stroke-opacity: 0.7; stroke-width: 1.2"/>
   </g>
   <g id="patch_3">
    <path d="M 38.247656 234.344969 
L 38.247656 23.672969 
" style="fill: none; stroke: #7f7e78; stroke-width: 0.8; stroke-linejoin: miter; stroke-linecap: square"/>
   </g>
   <g id="patch_4">
    <path d="M 38.247656 234.344969 
L 256.374929 234.344969 
" style="fill: none; stroke: #7f7e78; stroke-width: 0.8; stroke-linejoin: miter; stroke-linecap: square"/>
   </g>
   <g id="text_15">
    <text style="font-size: 7.5px; font-family: 'system-ui', 'Segoe UI', 'Helvetica Neue', 'Arial', sans-serif; fill: #7f7e78; opacity: 0.85" transform="translate(160.903012 148.008402) rotate(-34)">random</text>
   </g>
   <g id="text_16">
    <text style="font-weight: 700; font-size: 9px; font-family: 'system-ui', 'Segoe UI', 'Helvetica Neue', 'Arial', sans-serif; text-anchor: start; fill: #2a78d6" x="130.532272" y="88.646576" transform="rotate(-0 130.532272 88.646576)">ROC-AUC = 0.88</text>
   </g>
   <g id="text_17">
    <text style="font-size: 9.5px; font-family: 'system-ui', 'Segoe UI', 'Helvetica Neue', 'Arial', sans-serif; text-anchor: start; fill: #7f7e78" x="38.247656" y="15.672969" transform="rotate(-0 38.247656 15.672969)">ROC - looks great</text>
   </g>
  </g>
  <g id="axes_2">
   <g id="patch_5">
    <path d="M 300.000384 234.344969 
L 518.127656 234.344969 
L 518.127656 23.672969 
L 300.000384 23.672969 
L 300.000384 234.344969 
z
" style="fill: none"/>
   </g>
   <g id="matplotlib.axis_3">
    <g id="xtick_7">
     <g id="line2d_27">
      <path d="M 304.195139 234.344969 
L 304.195139 23.672969 
" clip-path="url(#pa9e53fcf7d)" style="fill: none; stroke: #8a8a85; stroke-opacity: 0.25; stroke-width: 0.6; stroke-linecap: square"/>
     </g>
     <g id="line2d_28">
      <g>
       <use xlink:href="#m14089cc66d" x="304.195139" y="234.344969" style="fill: #7f7e78; stroke: #7f7e78; stroke-width: 0.8"/>
      </g>
     </g>
     <g id="text_18">
      <text style="font-size: 8px; font-family: 'system-ui', 'Segoe UI', 'Helvetica Neue', 'Arial', sans-serif; text-anchor: middle; fill: #7f7e78" x="304.195139" y="247.267469" transform="rotate(-0 304.195139 247.267469)">0.0</text>
     </g>
    </g>
    <g id="xtick_8">
     <g id="line2d_29">
      <path d="M 346.142691 234.344969 
L 346.142691 23.672969 
" clip-path="url(#pa9e53fcf7d)" style="fill: none; stroke: #8a8a85; stroke-opacity: 0.25; stroke-width: 0.6; stroke-linecap: square"/>
     </g>
     <g id="line2d_30">
      <g>
       <use xlink:href="#m14089cc66d" x="346.142691" y="234.344969" style="fill: #7f7e78; stroke: #7f7e78; stroke-width: 0.8"/>
      </g>
     </g>
     <g id="text_19">
      <text style="font-size: 8px; font-family: 'system-ui', 'Segoe UI', 'Helvetica Neue', 'Arial', sans-serif; text-anchor: middle; fill: #7f7e78" x="346.142691" y="247.267469" transform="rotate(-0 346.142691 247.267469)">0.2</text>
     </g>
    </g>
    <g id="xtick_9">
     <g id="line2d_31">
      <path d="M 388.090244 234.344969 
L 388.090244 23.672969 
" clip-path="url(#pa9e53fcf7d)" style="fill: none; stroke: #8a8a85; stroke-opacity: 0.25; stroke-width: 0.6; stroke-linecap: square"/>
     </g>
     <g id="line2d_32">
      <g>
       <use xlink:href="#m14089cc66d" x="388.090244" y="234.344969" style="fill: #7f7e78; stroke: #7f7e78; stroke-width: 0.8"/>
      </g>
     </g>
     <g id="text_20">
      <text style="font-size: 8px; font-family: 'system-ui', 'Segoe UI', 'Helvetica Neue', 'Arial', sans-serif; text-anchor: middle; fill: #7f7e78" x="388.090244" y="247.267469" transform="rotate(-0 388.090244 247.267469)">0.4</text>
     </g>
    </g>
    <g id="xtick_10">
     <g id="line2d_33">
      <path d="M 430.037796 234.344969 
L 430.037796 23.672969 
" clip-path="url(#pa9e53fcf7d)" style="fill: none; stroke: #8a8a85; stroke-opacity: 0.25; stroke-width: 0.6; stroke-linecap: square"/>
     </g>
     <g id="line2d_34">
      <g>
       <use xlink:href="#m14089cc66d" x="430.037796" y="234.344969" style="fill: #7f7e78; stroke: #7f7e78; stroke-width: 0.8"/>
      </g>
     </g>
     <g id="text_21">
      <text style="font-size: 8px; font-family: 'system-ui', 'Segoe UI', 'Helvetica Neue', 'Arial', sans-serif; text-anchor: middle; fill: #7f7e78" x="430.037796" y="247.267469" transform="rotate(-0 430.037796 247.267469)">0.6</text>
     </g>
    </g>
    <g id="xtick_11">
     <g id="line2d_35">
      <path d="M 471.985349 234.344969 
L 471.985349 23.672969 
" clip-path="url(#pa9e53fcf7d)" style="fill: none; stroke: #8a8a85; stroke-opacity: 0.25; stroke-width: 0.6; stroke-linecap: square"/>
     </g>
     <g id="line2d_36">
      <g>
       <use xlink:href="#m14089cc66d" x="471.985349" y="234.344969" style="fill: #7f7e78; stroke: #7f7e78; stroke-width: 0.8"/>
      </g>
     </g>
     <g id="text_22">
      <text style="font-size: 8px; font-family: 'system-ui', 'Segoe UI', 'Helvetica Neue', 'Arial', sans-serif; text-anchor: middle; fill: #7f7e78" x="471.985349" y="247.267469" transform="rotate(-0 471.985349 247.267469)">0.8</text>
     </g>
    </g>
    <g id="xtick_12">
     <g id="line2d_37">
      <path d="M 513.932901 234.344969 
L 513.932901 23.672969 
" clip-path="url(#pa9e53fcf7d)" style="fill: none; stroke: #8a8a85; stroke-opacity: 0.25; stroke-width: 0.6; stroke-linecap: square"/>
     </g>
     <g id="line2d_38">
      <g>
       <use xlink:href="#m14089cc66d" x="513.932901" y="234.344969" style="fill: #7f7e78; stroke: #7f7e78; stroke-width: 0.8"/>
      </g>
     </g>
     <g id="text_23">
      <text style="font-size: 8px; font-family: 'system-ui', 'Segoe UI', 'Helvetica Neue', 'Arial', sans-serif; text-anchor: middle; fill: #7f7e78" x="513.932901" y="247.267469" transform="rotate(-0 513.932901 247.267469)">1.0</text>
     </g>
    </g>
    <g id="text_24">
     <text style="font-size: 8.5px; font-family: 'system-ui', 'Segoe UI', 'Helvetica Neue', 'Arial', sans-serif; text-anchor: middle; fill: #7f7e78" x="409.06402" y="259.400125" transform="rotate(-0 409.06402 259.400125)">Recall</text>
    </g>
   </g>
   <g id="matplotlib.axis_4">
    <g id="ytick_7">
     <g id="line2d_39">
      <path d="M 300.000384 230.407174 
L 518.127656 230.407174 
" clip-path="url(#pa9e53fcf7d)" style="fill: none; stroke: #8a8a85; stroke-opacity: 0.25; stroke-width: 0.6; stroke-linecap: square"/>
     </g>
     <g id="line2d_40">
      <g>
       <use xlink:href="#m5a314e16e5" x="300.000384" y="230.407174" style="fill: #7f7e78; stroke: #7f7e78; stroke-width: 0.8"/>
      </g>
     </g>
     <g id="text_25">
      <text style="font-size: 8px; font-family: 'system-ui', 'Segoe UI', 'Helvetica Neue', 'Arial', sans-serif; text-anchor: end; fill: #7f7e78" x="293.000384" y="233.368424" transform="rotate(-0 293.000384 233.368424)">0.0</text>
     </g>
    </g>
    <g id="ytick_8">
     <g id="line2d_41">
      <path d="M 300.000384 191.02923 
L 518.127656 191.02923 
" clip-path="url(#pa9e53fcf7d)" style="fill: none; stroke: #8a8a85; stroke-opacity: 0.25; stroke-width: 0.6; stroke-linecap: square"/>
     </g>
     <g id="line2d_42">
      <g>
       <use xlink:href="#m5a314e16e5" x="300.000384" y="191.02923" style="fill: #7f7e78; stroke: #7f7e78; stroke-width: 0.8"/>
      </g>
     </g>
     <g id="text_26">
      <text style="font-size: 8px; font-family: 'system-ui', 'Segoe UI', 'Helvetica Neue', 'Arial', sans-serif; text-anchor: end; fill: #7f7e78" x="293.000384" y="193.99048" transform="rotate(-0 293.000384 193.99048)">0.2</text>
     </g>
    </g>
    <g id="ytick_9">
     <g id="line2d_43">
      <path d="M 300.000384 151.651287 
L 518.127656 151.651287 
" clip-path="url(#pa9e53fcf7d)" style="fill: none; stroke: #8a8a85; stroke-opacity: 0.25; stroke-width: 0.6; stroke-linecap: square"/>
     </g>
     <g id="line2d_44">
      <g>
       <use xlink:href="#m5a314e16e5" x="300.000384" y="151.651287" style="fill: #7f7e78; stroke: #7f7e78; stroke-width: 0.8"/>
      </g>
     </g>
     <g id="text_27">
      <text style="font-size: 8px; font-family: 'system-ui', 'Segoe UI', 'Helvetica Neue', 'Arial', sans-serif; text-anchor: end; fill: #7f7e78" x="293.000384" y="154.612537" transform="rotate(-0 293.000384 154.612537)">0.4</text>
     </g>
    </g>
    <g id="ytick_10">
     <g id="line2d_45">
      <path d="M 300.000384 112.273343 
L 518.127656 112.273343 
" clip-path="url(#pa9e53fcf7d)" style="fill: none; stroke: #8a8a85; stroke-opacity: 0.25; stroke-width: 0.6; stroke-linecap: square"/>
     </g>
     <g id="line2d_46">
      <g>
       <use xlink:href="#m5a314e16e5" x="300.000384" y="112.273343" style="fill: #7f7e78; stroke: #7f7e78; stroke-width: 0.8"/>
      </g>
     </g>
     <g id="text_28">
      <text style="font-size: 8px; font-family: 'system-ui', 'Segoe UI', 'Helvetica Neue', 'Arial', sans-serif; text-anchor: end; fill: #7f7e78" x="293.000384" y="115.234593" transform="rotate(-0 293.000384 115.234593)">0.6</text>
     </g>
    </g>
    <g id="ytick_11">
     <g id="line2d_47">
      <path d="M 300.000384 72.895399 
L 518.127656 72.895399 
" clip-path="url(#pa9e53fcf7d)" style="fill: none; stroke: #8a8a85; stroke-opacity: 0.25; stroke-width: 0.6; stroke-linecap: square"/>
     </g>
     <g id="line2d_48">
      <g>
       <use xlink:href="#m5a314e16e5" x="300.000384" y="72.895399" style="fill: #7f7e78; stroke: #7f7e78; stroke-width: 0.8"/>
      </g>
     </g>
     <g id="text_29">
      <text style="font-size: 8px; font-family: 'system-ui', 'Segoe UI', 'Helvetica Neue', 'Arial', sans-serif; text-anchor: end; fill: #7f7e78" x="293.000384" y="75.856649" transform="rotate(-0 293.000384 75.856649)">0.8</text>
     </g>
    </g>
    <g id="ytick_12">
     <g id="line2d_49">
      <path d="M 300.000384 33.517455 
L 518.127656 33.517455 
" clip-path="url(#pa9e53fcf7d)" style="fill: none; stroke: #8a8a85; stroke-opacity: 0.25; stroke-width: 0.6; stroke-linecap: square"/>
     </g>
     <g id="line2d_50">
      <g>
       <use xlink:href="#m5a314e16e5" x="300.000384" y="33.517455" style="fill: #7f7e78; stroke: #7f7e78; stroke-width: 0.8"/>
      </g>
     </g>
     <g id="text_30">
      <text style="font-size: 8px; font-family: 'system-ui', 'Segoe UI', 'Helvetica Neue', 'Arial', sans-serif; text-anchor: end; fill: #7f7e78" x="293.000384" y="36.478705" transform="rotate(-0 293.000384 36.478705)">1.0</text>
     </g>
    </g>
    <g id="text_31">
     <text style="font-size: 8.5px; font-family: 'system-ui', 'Segoe UI', 'Helvetica Neue', 'Arial', sans-serif; text-anchor: middle; fill: #7f7e78" x="276.685384" y="129.008969" transform="rotate(-90 276.685384 129.008969)">Precision</text>
    </g>
   </g>
   <g id="FillBetweenPolyCollection_2">
    <defs>
     <path id="ma2e059a000" d="M 513.932901 -55.453232 
L 513.932901 -59.391026 
L 513.932901 -59.400895 
L 513.932901 -59.410814 
L 513.932901 -59.420783 
L 513.932901 -59.430802 
L 513.932901 -59.440872 
L 513.932901 -59.450993 
L 513.932901 -59.461165 
L 513.932901 -59.471389 
L 513.932901 -59.481666 
L 513.932901 -59.491995 
L 513.932901 -59.502378 
L 513.932901 -59.512814 
L 513.932901 -59.523304 
L 513.932901 -59.533848 
L 513.932901 -59.544447 
L 513.932901 -59.555101 
L 513.932901 -59.565811 
L 513.932901 -59.576577 
L 513.932901 -59.587399 
L 513.932901 -59.598279 
L 513.932901 -59.609215 
L 513.932901 -59.62021 
L 513.932901 -59.631263 
L 513.932901 -59.642375 
L 513.932901 -59.653546 
L 513.932901 -59.664777 
L 513.932901 -59.676068 
L 513.932901 -59.687419 
L 513.932901 -59.698832 
L 513.932901 -59.710307 
L 513.932901 -59.721844 
L 513.932901 -59.733443 
L 513.932901 -59.745106 
L 513.932901 -59.756832 
L 513.932901 -59.768623 
L 513.932901 -59.780478 
L 513.932901 -59.792399 
L 513.932901 -59.804386 
L 513.932901 -59.816439 
L 513.932901 -59.828559 
L 513.932901 -59.840747 
L 513.932901 -59.853002 
L 513.932901 -59.865326 
L 513.932901 -59.87772 
L 513.932901 -59.890183 
L 513.932901 -59.902717 
L 513.932901 -59.915322 
L 513.932901 -59.927998 
L 513.932901 -59.940747 
L 513.932901 -59.953568 
L 513.932901 -59.966463 
L 513.932901 -59.979432 
L 513.932901 -59.992476 
L 513.932901 -60.005595 
L 513.932901 -60.018791 
L 513.932901 -60.032063 
L 513.932901 -60.045412 
L 513.932901 -60.058839 
L 511.311179 -60.014607 
L 511.311179 -60.028022 
L 511.311179 -60.041517 
L 511.311179 -60.055092 
L 511.311179 -60.068748 
L 511.311179 -60.082484 
L 511.311179 -60.096303 
L 511.311179 -60.110204 
L 511.311179 -60.124189 
L 511.311179 -60.138258 
L 511.311179 -60.152413 
L 511.311179 -60.166652 
L 511.311179 -60.180979 
L 511.311179 -60.195393 
L 511.311179 -60.209895 
L 511.311179 -60.224486 
L 511.311179 -60.239167 
L 511.311179 -60.253938 
L 511.311179 -60.268801 
L 511.311179 -60.283756 
L 511.311179 -60.298804 
L 511.311179 -60.313947 
L 511.311179 -60.329184 
L 511.311179 -60.344517 
L 511.311179 -60.359947 
L 511.311179 -60.375475 
L 511.311179 -60.391101 
L 511.311179 -60.406827 
L 511.311179 -60.422653 
L 511.311179 -60.438581 
L 511.311179 -60.454611 
L 511.311179 -60.470744 
L 511.311179 -60.486982 
L 511.311179 -60.503325 
L 511.311179 -60.519775 
L 511.311179 -60.536332 
L 511.311179 -60.552998 
L 511.311179 -60.569774 
L 511.311179 -60.58666 
L 511.311179 -60.603658 
L 511.311179 -60.620769 
L 511.311179 -60.637995 
L 511.311179 -60.655335 
L 511.311179 -60.672792 
L 511.311179 -60.690366 
L 511.311179 -60.708059 
L 511.311179 -60.725872 
L 511.311179 -60.743806 
L 511.311179 -60.761863 
L 511.311179 -60.780043 
L 511.311179 -60.798348 
L 511.311179 -60.816779 
L 511.311179 -60.835338 
L 511.311179 -60.854026 
L 511.311179 -60.872844 
L 511.311179 -60.891794 
L 511.311179 -60.910877 
L 511.311179 -60.930094 
L 511.311179 -60.949447 
L 511.311179 -60.968937 
L 511.311179 -60.988566 
L 511.311179 -61.008335 
L 511.311179 -61.028245 
L 511.311179 -61.048299 
L 511.311179 -61.068498 
L 511.311179 -61.088843 
L 511.311179 -61.109337 
L 511.311179 -61.129979 
L 511.311179 -61.150773 
L 511.311179 -61.17172 
L 511.311179 -61.192822 
L 511.311179 -61.214079 
L 511.311179 -61.235495 
L 511.311179 -61.257071 
L 508.689457 -61.205066 
L 508.689457 -61.22669 
L 508.689457 -61.248476 
L 508.689457 -61.270428 
L 508.689457 -61.292547 
L 508.689457 -61.314834 
L 508.689457 -61.337292 
L 508.689457 -61.359923 
L 508.689457 -61.382729 
L 506.067735 -61.329398 
L 506.067735 -61.352262 
L 506.067735 -61.375305 
L 506.067735 -61.398529 
L 506.067735 -61.421936 
L 506.067735 -61.445528 
L 506.067735 -61.469307 
L 506.067735 -61.493275 
L 506.067735 -61.517435 
L 506.067735 -61.541789 
L 506.067735 -61.56634 
L 506.067735 -61.59109 
L 506.067735 -61.61604 
L 506.067735 -61.641195 
L 506.067735 -61.666555 
L 506.067735 -61.692124 
L 506.067735 -61.717905 
L 506.067735 -61.743899 
L 506.067735 -61.77011 
L 506.067735 -61.796541 
L 506.067735 -61.823193 
L 506.067735 -61.850071 
L 506.067735 -61.877176 
L 506.067735 -61.904512 
L 506.067735 -61.932082 
L 506.067735 -61.959888 
L 506.067735 -61.987934 
L 506.067735 -62.016223 
L 506.067735 -62.044757 
L 506.067735 -62.073541 
L 506.067735 -62.102578 
L 506.067735 -62.13187 
L 506.067735 -62.161421 
L 506.067735 -62.191236 
L 506.067735 -62.221316 
L 506.067735 -62.251666 
L 506.067735 -62.28229 
L 506.067735 -62.31319 
L 506.067735 -62.344372 
L 506.067735 -62.375838 
L 506.067735 -62.407594 
L 506.067735 -62.439641 
L 506.067735 -62.471986 
L 506.067735 -62.504631 
L 506.067735 -62.537582 
L 506.067735 -62.570841 
L 506.067735 -62.604415 
L 506.067735 -62.638307 
L 506.067735 -62.672522 
L 506.067735 -62.707064 
L 506.067735 -62.741938 
L 506.067735 -62.777149 
L 503.446013 -62.717124 
L 503.446013 -62.752558 
L 500.824291 -62.691825 
L 500.824291 -62.727483 
L 500.824291 -62.763494 
L 500.824291 -62.799863 
L 500.824291 -62.836596 
L 500.824291 -62.873699 
L 500.824291 -62.911176 
L 500.824291 -62.949033 
L 500.824291 -62.987277 
L 500.824291 -63.025913 
L 498.202569 -62.963458 
L 498.202569 -63.002371 
L 498.202569 -63.04169 
L 498.202569 -63.08142 
L 498.202569 -63.121568 
L 498.202569 -63.162142 
L 498.202569 -63.203146 
L 498.202569 -63.24459 
L 498.202569 -63.286479 
L 498.202569 -63.328821 
L 498.202569 -63.371623 
L 498.202569 -63.414893 
L 498.202569 -63.458638 
L 498.202569 -63.502867 
L 498.202569 -63.547587 
L 498.202569 -63.592807 
L 498.202569 -63.638535 
L 498.202569 -63.684779 
L 498.202569 -63.73155 
L 498.202569 -63.778854 
L 498.202569 -63.826703 
L 498.202569 -63.875104 
L 498.202569 -63.924069 
L 498.202569 -63.973606 
L 498.202569 -64.023726 
L 498.202569 -64.074439 
L 498.202569 -64.125755 
L 495.580847 -64.059788 
L 495.580847 -64.111635 
L 495.580847 -64.16411 
L 495.580847 -64.217226 
L 495.580847 -64.270992 
L 495.580847 -64.325423 
L 495.580847 -64.38053 
L 492.959125 -64.313269 
L 492.959125 -64.368993 
L 492.959125 -64.425422 
L 492.959125 -64.482569 
L 492.959125 -64.54045 
L 490.337403 -64.472051 
L 490.337403 -64.530615 
L 490.337403 -64.589944 
L 490.337403 -64.650054 
L 490.337403 -64.71096 
L 490.337403 -64.772679 
L 490.337403 -64.835225 
L 490.337403 -64.898617 
L 490.337403 -64.962871 
L 490.337403 -65.028006 
L 490.337403 -65.094039 
L 490.337403 -65.160989 
L 490.337403 -65.228875 
L 490.337403 -65.297718 
L 490.337403 -65.367537 
L 490.337403 -65.438353 
L 490.337403 -65.510189 
L 490.337403 -65.583065 
L 490.337403 -65.657006 
L 490.337403 -65.732033 
L 490.337403 -65.808173 
L 490.337403 -65.885448 
L 490.337403 -65.963886 
L 490.337403 -66.043512 
L 490.337403 -66.124354 
L 490.337403 -66.20644 
L 490.337403 -66.289798 
L 490.337403 -66.374459 
L 490.337403 -66.460452 
L 490.337403 -66.547811 
L 490.337403 -66.636568 
L 490.337403 -66.726756 
L 490.337403 -66.818411 
L 487.715681 -66.750183 
L 487.715681 -66.843546 
L 487.715681 -66.938466 
L 487.715681 -67.03498 
L 485.093959 -66.966275 
L 485.093959 -67.064677 
L 485.093959 -67.164776 
L 485.093959 -67.266615 
L 485.093959 -67.370241 
L 485.093959 -67.475701 
L 485.093959 -67.583045 
L 485.093959 -67.692323 
L 485.093959 -67.803587 
L 485.093959 -67.916893 
L 485.093959 -68.032297 
L 482.472237 -67.96585 
L 482.472237 -68.083893 
L 482.472237 -68.204185 
L 482.472237 -68.32679 
L 482.472237 -68.451776 
L 479.850515 -68.386184 
L 479.850515 -68.514233 
L 479.850515 -68.644843 
L 479.850515 -68.778092 
L 479.850515 -68.91406 
L 479.850515 -69.052831 
L 479.850515 -69.194494 
L 479.850515 -69.339138 
L 477.228793 -69.277404 
L 474.607071 -69.214341 
L 474.607071 -69.363919 
L 474.607071 -69.516783 
L 474.607071 -69.673045 
L 474.607071 -69.832818 
L 474.607071 -69.996223 
L 474.607071 -70.163383 
L 474.607071 -70.334432 
L 474.607071 -70.509505 
L 474.607071 -70.688746 
L 471.985349 -70.63509 
L 471.985349 -70.820234 
L 471.985349 -71.00995 
L 469.363627 -70.958297 
L 469.363627 -71.154564 
L 469.363627 -71.355863 
L 469.363627 -71.562391 
L 466.741905 -71.515288 
L 466.741905 -71.729449 
L 466.741905 -71.949398 
L 464.120182 -71.905661 
L 464.120182 -72.134166 
L 464.120182 -72.369109 
L 464.120182 -72.610765 
L 464.120182 -72.859424 
L 464.120182 -73.115398 
L 461.49846 -73.085147 
L 461.49846 -73.352297 
L 461.49846 -73.627668 
L 458.876738 -73.604003 
L 458.876738 -73.89211 
L 458.876738 -74.189512 
L 458.876738 -74.496664 
L 458.876738 -74.814054 
L 458.876738 -75.142204 
L 453.633294 -74.802739 
L 453.633294 -75.142204 
L 453.633294 -75.493793 
L 453.633294 -75.858166 
L 453.633294 -76.236036 
L 453.633294 -76.628164 
L 451.011572 -76.65674 
L 448.38985 -76.686437 
L 448.38985 -77.111101 
L 445.768128 -77.151283 
L 443.146406 -77.193138 
L 440.524684 -77.236775 
L 435.28124 -76.854288 
L 435.28124 -77.329867 
L 435.28124 -77.827064 
L 432.659518 -77.889502 
L 430.037796 -77.954914 
L 430.037796 -78.503736 
L 427.416074 -78.587774 
L 424.794352 -78.676122 
L 424.794352 -79.287251 
L 422.17263 -79.399279 
L 422.17263 -80.064447 
L 422.17263 -80.767624 
L 419.550908 -80.933078 
L 416.929186 -81.108559 
L 416.929186 -81.910288 
L 416.929186 -82.763741 
L 414.307464 -83.017793 
L 411.685742 -83.289365 
L 411.685742 -84.283512 
L 411.685742 -85.3513 
L 409.06402 -85.743958 
L 409.06402 -86.955587 
L 406.442298 -87.447811 
L 406.442298 -88.83888 
L 403.820576 -89.461456 
L 401.198854 -90.143325 
L 395.95541 -89.908933 
L 395.95541 -91.722391 
L 390.711966 -91.54968 
L 388.090244 -92.514826 
L 388.090244 -94.831176 
L 388.090244 -97.456372 
L 385.468522 -99.050241 
L 385.468522 -102.403857 
L 385.468522 -106.316409 
L 380.225078 -107.360522 
L 380.225078 -112.551251 
L 374.981634 -114.520148 
L 374.981634 -121.903512 
L 367.116467 -122.958279 
L 359.251301 -124.364634 
L 354.007857 -130.271325 
L 346.142691 -134.20912 
L 340.899247 -147.335101 
L 333.034081 -163.742578 
L 319.925471 -173.587064 
L 304.195139 -252.342952 
L 304.195139 -55.453232 
L 304.195139 -55.453232 
L 319.925471 -55.453232 
L 333.034081 -55.453232 
L 340.899247 -55.453232 
L 346.142691 -55.453232 
L 354.007857 -55.453232 
L 359.251301 -55.453232 
L 367.116467 -55.453232 
L 374.981634 -55.453232 
L 374.981634 -55.453232 
L 380.225078 -55.453232 
L 380.225078 -55.453232 
L 385.468522 -55.453232 
L 385.468522 -55.453232 
L 385.468522 -55.453232 
L 388.090244 -55.453232 
L 388.090244 -55.453232 
L 388.090244 -55.453232 
L 390.711966 -55.453232 
L 395.95541 -55.453232 
L 395.95541 -55.453232 
L 401.198854 -55.453232 
L 403.820576 -55.453232 
L 406.442298 -55.453232 
L 406.442298 -55.453232 
L 409.06402 -55.453232 
L 409.06402 -55.453232 
L 411.685742 -55.453232 
L 411.685742 -55.453232 
L 411.685742 -55.453232 
L 414.307464 -55.453232 
L 416.929186 -55.453232 
L 416.929186 -55.453232 
L 416.929186 -55.453232 
L 419.550908 -55.453232 
L 422.17263 -55.453232 
L 422.17263 -55.453232 
L 422.17263 -55.453232 
L 424.794352 -55.453232 
L 424.794352 -55.453232 
L 427.416074 -55.453232 
L 430.037796 -55.453232 
L 430.037796 -55.453232 
L 432.659518 -55.453232 
L 435.28124 -55.453232 
L 435.28124 -55.453232 
L 435.28124 -55.453232 
L 440.524684 -55.453232 
L 443.146406 -55.453232 
L 445.768128 -55.453232 
L 448.38985 -55.453232 
L 448.38985 -55.453232 
L 451.011572 -55.453232 
L 453.633294 -55.453232 
L 453.633294 -55.453232 
L 453.633294 -55.453232 
L 453.633294 -55.453232 
L 453.633294 -55.453232 
L 453.633294 -55.453232 
L 458.876738 -55.453232 
L 458.876738 -55.453232 
L 458.876738 -55.453232 
L 458.876738 -55.453232 
L 458.876738 -55.453232 
L 458.876738 -55.453232 
L 461.49846 -55.453232 
L 461.49846 -55.453232 
L 461.49846 -55.453232 
L 464.120182 -55.453232 
L 464.120182 -55.453232 
L 464.120182 -55.453232 
L 464.120182 -55.453232 
L 464.120182 -55.453232 
L 464.120182 -55.453232 
L 466.741905 -55.453232 
L 466.741905 -55.453232 
L 466.741905 -55.453232 
L 469.363627 -55.453232 
L 469.363627 -55.453232 
L 469.363627 -55.453232 
L 469.363627 -55.453232 
L 471.985349 -55.453232 
L 471.985349 -55.453232 
L 471.985349 -55.453232 
L 474.607071 -55.453232 
L 474.607071 -55.453232 
L 474.607071 -55.453232 
L 474.607071 -55.453232 
L 474.607071 -55.453232 
L 474.607071 -55.453232 
L 474.607071 -55.453232 
L 474.607071 -55.453232 
L 474.607071 -55.453232 
L 474.607071 -55.453232 
L 477.228793 -55.453232 
L 479.850515 -55.453232 
L 479.850515 -55.453232 
L 479.850515 -55.453232 
L 479.850515 -55.453232 
L 479.850515 -55.453232 
L 479.850515 -55.453232 
L 479.850515 -55.453232 
L 479.850515 -55.453232 
L 482.472237 -55.453232 
L 482.472237 -55.453232 
L 482.472237 -55.453232 
L 482.472237 -55.453232 
L 482.472237 -55.453232 
L 485.093959 -55.453232 
L 485.093959 -55.453232 
L 485.093959 -55.453232 
L 485.093959 -55.453232 
L 485.093959 -55.453232 
L 485.093959 -55.453232 
L 485.093959 -55.453232 
L 485.093959 -55.453232 
L 485.093959 -55.453232 
L 485.093959 -55.453232 
L 485.093959 -55.453232 
L 487.715681 -55.453232 
L 487.715681 -55.453232 
L 487.715681 -55.453232 
L 487.715681 -55.453232 
L 490.337403 -55.453232 
L 490.337403 -55.453232 
L 490.337403 -55.453232 
L 490.337403 -55.453232 
L 490.337403 -55.453232 
L 490.337403 -55.453232 
L 490.337403 -55.453232 
L 490.337403 -55.453232 
L 490.337403 -55.453232 
L 490.337403 -55.453232 
L 490.337403 -55.453232 
L 490.337403 -55.453232 
L 490.337403 -55.453232 
L 490.337403 -55.453232 
L 490.337403 -55.453232 
L 490.337403 -55.453232 
L 490.337403 -55.453232 
L 490.337403 -55.453232 
L 490.337403 -55.453232 
L 490.337403 -55.453232 
L 490.337403 -55.453232 
L 490.337403 -55.453232 
L 490.337403 -55.453232 
L 490.337403 -55.453232 
L 490.337403 -55.453232 
L 490.337403 -55.453232 
L 490.337403 -55.453232 
L 490.337403 -55.453232 
L 490.337403 -55.453232 
L 490.337403 -55.453232 
L 490.337403 -55.453232 
L 490.337403 -55.453232 
L 490.337403 -55.453232 
L 492.959125 -55.453232 
L 492.959125 -55.453232 
L 492.959125 -55.453232 
L 492.959125 -55.453232 
L 492.959125 -55.453232 
L 495.580847 -55.453232 
L 495.580847 -55.453232 
L 495.580847 -55.453232 
L 495.580847 -55.453232 
L 495.580847 -55.453232 
L 495.580847 -55.453232 
L 495.580847 -55.453232 
L 498.202569 -55.453232 
L 498.202569 -55.453232 
L 498.202569 -55.453232 
L 498.202569 -55.453232 
L 498.202569 -55.453232 
L 498.202569 -55.453232 
L 498.202569 -55.453232 
L 498.202569 -55.453232 
L 498.202569 -55.453232 
L 498.202569 -55.453232 
L 498.202569 -55.453232 
L 498.202569 -55.453232 
L 498.202569 -55.453232 
L 498.202569 -55.453232 
L 498.202569 -55.453232 
L 498.202569 -55.453232 
L 498.202569 -55.453232 
L 498.202569 -55.453232 
L 498.202569 -55.453232 
L 498.202569 -55.453232 
L 498.202569 -55.453232 
L 498.202569 -55.453232 
L 498.202569 -55.453232 
L 498.202569 -55.453232 
L 498.202569 -55.453232 
L 498.202569 -55.453232 
L 498.202569 -55.453232 
L 500.824291 -55.453232 
L 500.824291 -55.453232 
L 500.824291 -55.453232 
L 500.824291 -55.453232 
L 500.824291 -55.453232 
L 500.824291 -55.453232 
L 500.824291 -55.453232 
L 500.824291 -55.453232 
L 500.824291 -55.453232 
L 500.824291 -55.453232 
L 503.446013 -55.453232 
L 503.446013 -55.453232 
L 506.067735 -55.453232 
L 506.067735 -55.453232 
L 506.067735 -55.453232 
L 506.067735 -55.453232 
L 506.067735 -55.453232 
L 506.067735 -55.453232 
L 506.067735 -55.453232 
L 506.067735 -55.453232 
L 506.067735 -55.453232 
L 506.067735 -55.453232 
L 506.067735 -55.453232 
L 506.067735 -55.453232 
L 506.067735 -55.453232 
L 506.067735 -55.453232 
L 506.067735 -55.453232 
L 506.067735 -55.453232 
L 506.067735 -55.453232 
L 506.067735 -55.453232 
L 506.067735 -55.453232 
L 506.067735 -55.453232 
L 506.067735 -55.453232 
L 506.067735 -55.453232 
L 506.067735 -55.453232 
L 506.067735 -55.453232 
L 506.067735 -55.453232 
L 506.067735 -55.453232 
L 506.067735 -55.453232 
L 506.067735 -55.453232 
L 506.067735 -55.453232 
L 506.067735 -55.453232 
L 506.067735 -55.453232 
L 506.067735 -55.453232 
L 506.067735 -55.453232 
L 506.067735 -55.453232 
L 506.067735 -55.453232 
L 506.067735 -55.453232 
L 506.067735 -55.453232 
L 506.067735 -55.453232 
L 506.067735 -55.453232 
L 506.067735 -55.453232 
L 506.067735 -55.453232 
L 506.067735 -55.453232 
L 506.067735 -55.453232 
L 506.067735 -55.453232 
L 506.067735 -55.453232 
L 506.067735 -55.453232 
L 506.067735 -55.453232 
L 506.067735 -55.453232 
L 506.067735 -55.453232 
L 506.067735 -55.453232 
L 506.067735 -55.453232 
L 506.067735 -55.453232 
L 508.689457 -55.453232 
L 508.689457 -55.453232 
L 508.689457 -55.453232 
L 508.689457 -55.453232 
L 508.689457 -55.453232 
L 508.689457 -55.453232 
L 508.689457 -55.453232 
L 508.689457 -55.453232 
L 508.689457 -55.453232 
L 511.311179 -55.453232 
L 511.311179 -55.453232 
L 511.311179 -55.453232 
L 511.311179 -55.453232 
L 511.311179 -55.453232 
L 511.311179 -55.453232 
L 511.311179 -55.453232 
L 511.311179 -55.453232 
L 511.311179 -55.453232 
L 511.311179 -55.453232 
L 511.311179 -55.453232 
L 511.311179 -55.453232 
L 511.311179 -55.453232 
L 511.311179 -55.453232 
L 511.311179 -55.453232 
L 511.311179 -55.453232 
L 511.311179 -55.453232 
L 511.311179 -55.453232 
L 511.311179 -55.453232 
L 511.311179 -55.453232 
L 511.311179 -55.453232 
L 511.311179 -55.453232 
L 511.311179 -55.453232 
L 511.311179 -55.453232 
L 511.311179 -55.453232 
L 511.311179 -55.453232 
L 511.311179 -55.453232 
L 511.311179 -55.453232 
L 511.311179 -55.453232 
L 511.311179 -55.453232 
L 511.311179 -55.453232 
L 511.311179 -55.453232 
L 511.311179 -55.453232 
L 511.311179 -55.453232 
L 511.311179 -55.453232 
L 511.311179 -55.453232 
L 511.311179 -55.453232 
L 511.311179 -55.453232 
L 511.311179 -55.453232 
L 511.311179 -55.453232 
L 511.311179 -55.453232 
L 511.311179 -55.453232 
L 511.311179 -55.453232 
L 511.311179 -55.453232 
L 511.311179 -55.453232 
L 511.311179 -55.453232 
L 511.311179 -55.453232 
L 511.311179 -55.453232 
L 511.311179 -55.453232 
L 511.311179 -55.453232 
L 511.311179 -55.453232 
L 511.311179 -55.453232 
L 511.311179 -55.453232 
L 511.311179 -55.453232 
L 511.311179 -55.453232 
L 511.311179 -55.453232 
L 511.311179 -55.453232 
L 511.311179 -55.453232 
L 511.311179 -55.453232 
L 511.311179 -55.453232 
L 511.311179 -55.453232 
L 511.311179 -55.453232 
L 511.311179 -55.453232 
L 511.311179 -55.453232 
L 511.311179 -55.453232 
L 511.311179 -55.453232 
L 511.311179 -55.453232 
L 511.311179 -55.453232 
L 511.311179 -55.453232 
L 511.311179 -55.453232 
L 511.311179 -55.453232 
L 511.311179 -55.453232 
L 511.311179 -55.453232 
L 511.311179 -55.453232 
L 513.932901 -55.453232 
L 513.932901 -55.453232 
L 513.932901 -55.453232 
L 513.932901 -55.453232 
L 513.932901 -55.453232 
L 513.932901 -55.453232 
L 513.932901 -55.453232 
L 513.932901 -55.453232 
L 513.932901 -55.453232 
L 513.932901 -55.453232 
L 513.932901 -55.453232 
L 513.932901 -55.453232 
L 513.932901 -55.453232 
L 513.932901 -55.453232 
L 513.932901 -55.453232 
L 513.932901 -55.453232 
L 513.932901 -55.453232 
L 513.932901 -55.453232 
L 513.932901 -55.453232 
L 513.932901 -55.453232 
L 513.932901 -55.453232 
L 513.932901 -55.453232 
L 513.932901 -55.453232 
L 513.932901 -55.453232 
L 513.932901 -55.453232 
L 513.932901 -55.453232 
L 513.932901 -55.453232 
L 513.932901 -55.453232 
L 513.932901 -55.453232 
L 513.932901 -55.453232 
L 513.932901 -55.453232 
L 513.932901 -55.453232 
L 513.932901 -55.453232 
L 513.932901 -55.453232 
L 513.932901 -55.453232 
L 513.932901 -55.453232 
L 513.932901 -55.453232 
L 513.932901 -55.453232 
L 513.932901 -55.453232 
L 513.932901 -55.453232 
L 513.932901 -55.453232 
L 513.932901 -55.453232 
L 513.932901 -55.453232 
L 513.932901 -55.453232 
L 513.932901 -55.453232 
L 513.932901 -55.453232 
L 513.932901 -55.453232 
L 513.932901 -55.453232 
L 513.932901 -55.453232 
L 513.932901 -55.453232 
L 513.932901 -55.453232 
L 513.932901 -55.453232 
L 513.932901 -55.453232 
L 513.932901 -55.453232 
L 513.932901 -55.453232 
L 513.932901 -55.453232 
L 513.932901 -55.453232 
L 513.932901 -55.453232 
L 513.932901 -55.453232 
z
" style="stroke: #d95926; stroke-opacity: 0.1"/>
    </defs>
    <g clip-path="url(#pa9e53fcf7d)">
     <use xlink:href="#ma2e059a000" x="0" y="285.860406" style="fill: #d95926; fill-opacity: 0.1; stroke: #d95926; stroke-opacity: 0.1"/>
    </g>
   </g>
   <g id="line2d_51">
    <path d="M 513.932901 226.46938 
L 513.932901 225.801567 
L 511.311179 225.8458 
L 511.311179 225.736217 
L 511.311179 224.603336 
L 508.689457 224.65534 
L 508.689457 224.545572 
L 508.689457 224.477677 
L 506.067735 224.531008 
L 506.067735 224.43847 
L 506.067735 223.083257 
L 500.824291 223.168582 
L 500.824291 223.096912 
L 500.824291 222.834493 
L 498.202569 222.896948 
L 498.202569 222.818716 
L 498.202569 221.734651 
L 495.580847 221.800618 
L 495.580847 221.696296 
L 495.580847 221.479877 
L 492.959125 221.547137 
L 492.959125 221.491413 
L 492.959125 221.319957 
L 490.337403 221.388355 
L 490.337403 221.329791 
L 490.337403 219.041995 
L 487.715681 219.110223 
L 487.715681 219.01686 
L 487.715681 218.825426 
L 485.093959 218.894131 
L 485.093959 218.795729 
L 485.093959 217.828109 
L 482.472237 217.894557 
L 482.472237 217.40863 
L 479.850515 217.474222 
L 479.850515 216.521268 
L 474.607071 216.646065 
L 474.607071 215.17166 
L 471.985349 215.225316 
L 471.985349 214.850456 
L 469.363627 214.902109 
L 469.363627 214.298015 
L 466.741905 214.345118 
L 466.741905 213.911009 
L 464.120182 213.954746 
L 464.120182 212.745008 
L 461.49846 212.775259 
L 461.49846 212.232739 
L 458.876738 212.256403 
L 458.876738 210.718202 
L 453.633294 211.057667 
L 453.633294 209.232242 
L 448.38985 209.173969 
L 448.38985 208.749305 
L 440.524684 208.623631 
L 435.28124 209.006118 
L 435.28124 208.033343 
L 430.037796 207.905492 
L 430.037796 207.356671 
L 424.794352 207.184284 
L 424.794352 206.573156 
L 422.17263 206.461127 
L 422.17263 205.092782 
L 416.929186 204.751847 
L 416.929186 203.096665 
L 411.685742 202.571042 
L 411.685742 200.509106 
L 409.06402 200.116448 
L 409.06402 198.904819 
L 406.442298 198.412595 
L 406.442298 197.021526 
L 401.198854 195.717081 
L 395.95541 195.951473 
L 395.95541 194.138015 
L 390.711966 194.310726 
L 388.090244 193.34558 
L 388.090244 188.404034 
L 385.468522 186.810165 
L 385.468522 179.543997 
L 380.225078 178.499885 
L 380.225078 173.309156 
L 374.981634 171.340258 
L 374.981634 163.956894 
L 367.116467 162.902128 
L 359.251301 161.495772 
L 354.007857 155.589081 
L 346.142691 151.651287 
L 340.899247 138.525305 
L 333.034081 122.117829 
L 319.925471 112.273343 
L 304.195139 33.517455 
L 304.195139 33.517455 
" clip-path="url(#pa9e53fcf7d)" style="fill: none; stroke: #d95926; stroke-width: 2.3; stroke-linecap: square"/>
   </g>
   <g id="line2d_52">
    <path d="M 300.000384 226.46938 
L 518.127656 226.46938 
" clip-path="url(#pa9e53fcf7d)" style="fill: none; stroke-dasharray: 4.44,1.92; stroke-dashoffset: 0; stroke: #7f7e78; stroke-opacity: 0.7; stroke-width: 1.2"/>
   </g>
   <g id="patch_6">
    <path d="M 300.000384 234.344969 
L 300.000384 23.672969 
" style="fill: none; stroke: #7f7e78; stroke-width: 0.8; stroke-linejoin: miter; stroke-linecap: square"/>
   </g>
   <g id="patch_7">
    <path d="M 300.000384 234.344969 
L 518.127656 234.344969 
" style="fill: none; stroke: #7f7e78; stroke-width: 0.8; stroke-linejoin: miter; stroke-linecap: square"/>
   </g>
   <g id="text_32">
    <text style="font-size: 7.5px; font-family: 'system-ui', 'Segoe UI', 'Helvetica Neue', 'Arial', sans-serif; text-anchor: start; fill: #7f7e78" x="413.258775" y="220.562688" transform="rotate(-0 413.258775 220.562688)">baseline = prevalence = 0.02</text>
   </g>
   <g id="text_33">
    <text style="font-weight: 700; font-size: 9px; font-family: 'system-ui', 'Segoe UI', 'Helvetica Neue', 'Arial', sans-serif; text-anchor: start; fill: #d95926" x="375.505978" y="108.335548" transform="rotate(-0 375.505978 108.335548)">PR-AUC = 0.24</text>
   </g>
   <g id="text_34">
    <text style="font-size: 9.5px; font-family: 'system-ui', 'Segoe UI', 'Helvetica Neue', 'Arial', sans-serif; text-anchor: start; fill: #7f7e78" x="300.000384" y="15.672969" transform="rotate(-0 300.000384 15.672969)">Precision-Recall - tells the truth</text>
   </g>
  </g>
  <g id="text_35">
   <text style="font-size: 7.8px; font-family: 'system-ui', 'Segoe UI', 'Helvetica Neue', 'Arial', sans-serif; text-anchor: middle; fill: #7f7e78" x="270.447656" y="275.384969" transform="rotate(-0 270.447656 275.384969)">Same model, same 2%-positive data. ROC-AUC is inflated by the 870 easy negatives; PR-AUC is not.</text>
  </g>
 </g>
 <defs>
  <clipPath id="pb44fa165bd">
   <rect x="38.247656" y="23.672969" width="218.127273" height="210.672"/>
  </clipPath>
  <clipPath id="pa9e53fcf7d">
   <rect x="300.000384" y="23.672969" width="218.127273" height="210.672"/>
  </clipPath>
 </defs>
</svg>
